<svg width="72" height="85" viewBox="0 0 72 85" fill="none" xmlns="http://www.w3.org/2000/svg">
<path d="M28.6875 39.8246H9.5625C8.21984 39.8246 6.93217 39.1952 5.98277 38.0749C5.03337 36.9546 4.5 35.4352 4.5 33.8509V11.2836C4.5 9.6993 5.03337 8.17987 5.98277 7.05959C6.93217 5.93931 8.21984 5.30994 9.5625 5.30994H28.6875C30.0302 5.30994 31.3178 5.93931 32.2672 7.05959C33.2166 8.17987 33.75 9.6993 33.75 11.2836V33.8509C33.75 35.4352 33.2166 36.9546 32.2672 38.0749C31.3178 39.1952 30.0302 39.8246 28.6875 39.8246ZM62.4375 39.8246H43.3125C41.9698 39.8246 40.6822 39.1952 39.7328 38.0749C38.7834 36.9546 38.25 35.4352 38.25 33.8509V11.2836C38.25 9.6993 38.7834 8.17987 39.7328 7.05959C40.6822 5.93931 41.9698 5.30994 43.3125 5.30994H62.4375C63.7802 5.30994 65.0678 5.93931 66.0172 7.05959C66.9666 8.17987 67.5 9.6993 67.5 11.2836V33.8509C67.5 35.4352 66.9666 36.9546 66.0172 38.0749C65.0678 39.1952 63.7802 39.8246 62.4375 39.8246ZM28.6875 79.6491H9.5625C8.21984 79.6491 6.93217 79.0198 5.98277 77.8995C5.03337 76.7792 4.5 75.2598 4.5 73.6755V51.1082C4.5 49.5239 5.03337 48.0044 5.98277 46.8842C6.93217 45.7639 8.21984 45.1345 9.5625 45.1345H28.6875C30.0302 45.1345 31.3178 45.7639 32.2672 46.8842C33.2166 48.0044 33.75 49.5239 33.75 51.1082V73.6755C33.75 75.2598 33.2166 76.7792 32.2672 77.8995C31.3178 79.0198 30.0302 79.6491 28.6875 79.6491ZM62.4375 79.6491H43.3125C41.9698 79.6491 40.6822 79.0198 39.7328 77.8995C38.7834 76.7792 38.25 75.2598 38.25 73.6755V51.1082C38.25 49.5239 38.7834 48.0044 39.7328 46.8842C40.6822 45.7639 41.9698 45.1345 43.3125 45.1345H62.4375C63.7802 45.1345 65.0678 45.7639 66.0172 46.8842C66.9666 48.0044 67.5 49.5239 67.5 51.1082V73.6755C67.5 75.2598 66.9666 76.7792 66.0172 77.8995C65.0678 79.0198 63.7802 79.6491 62.4375 79.6491Z" fill="#E04242"/>
</svg>
